<svg width="64" height="46" viewBox="0 0 64 46" fill="none" xmlns="http://www.w3.org/2000/svg">
<path d="M60.0713 26C61.7282 26 63.0713 24.6569 63.0713 23C63.0713 21.3431 61.7282 20 60.0713 20V26ZM1.80734 20.8787C0.635764 22.0503 0.635764 23.9497 1.80734 25.1213L20.8992 44.2132C22.0708 45.3848 23.9703 45.3848 25.1419 44.2132C26.3134 43.0416 26.3134 41.1421 25.1419 39.9706L8.1713 23L25.1419 6.02944C26.3134 4.85786 26.3134 2.95837 25.1419 1.7868C23.9703 0.615224 22.0708 0.615224 20.8992 1.7868L1.80734 20.8787ZM60.0713 20L3.92866 20V26L60.0713 26V20Z" fill="#236BC8"/>
</svg>
